<svg xmlns="http://www.w3.org/2000/svg" width="500" height="150"><path d="M226 24h7l-3 2-2 1-1 6 4 7 17 13 5 6 1 9-4 6-10 5-4-1 4-4v-6l-7-8-12-9-7-7-2-8 2-5 6-5Z"/><path d="M240 25h14v30l-7-6-7-5Zm19 0h11l6 4 3 5v9l-4 6-3 3 8 4 4 7-1 9-4 5-6 3h-12l4-5 2-5v-8l-3-6-5-4 4-5 1-3V33l-3-6Zm-40 32 6 1 4 4v7l-3 4v5l-5-1-6-4-3-6 2-7Zm34 17h1v6h-8l5-4ZM16 88h12l6 4 3 6v2h-8l-1-4-9-1-3 2v4l16 5 5 4 1 8-3 6-6 3-7 1-9-2-5-5-1-6h7l5 5h7l3-1v-5l-18-6-3-3-1-7 2-5 4-4Zm35 1h28v6H59v8h18l1 5-1 2H59v10h21v7H52l-1-1Zm43 0h24l6 5 1 8-3 5v3l2 4 1 12-5 1-4-1-1-12-1-1-12-1v14l-4 1h-4Zm8 6v10h13l2-2v-5l-4-3Zm37-6h24l6 5 1 8-3 5v3l2 4 1 12-2 1h-6l-1-1-1-12-1-1-12-1v14l-5 1-3-1Zm8 6v10h13l2-2v-5l-4-3Zm37-6h28v6h-20v8h18v7h-18v10h20l1 5-1 2h-28Zm64 0h24l5 4 1 2v7l-3 4 4 5v9l-5 5-9 2h-15l-2-1Zm8 6v9h9l5-2 1-4-4-3Zm0 15v10h12l3-2 1-4-3-4Zm37-21h28v6h-20v8h18v7h-18v10h21v6l-1 1h-28Zm52 0h10l13 36-2 2h-6l-3-7h-14l-3 7-8-1 12-34Zm4 10-4 13h10l-4-13Zm31-10h8l1 27 4 4 7-1 2-5V93l1-4h8v25l-2 8-5 4-2 1h-13l-5-3-3-3-1-3Zm43 0h30v6h-11v31l-8 1V95h-11Zm39 0h9l8 15 7-15h9l-8 16-3 6-1 15-5 1h-3l-1-15-12-22Z"/></svg>