<svg version="1.0" xmlns="http://www.w3.org/2000/svg" width="256" height="256" viewBox="0 0 192 192"><path d="M42.5 23.6c-20.1 4.5-29.9 10-35.4 19.6-5.7 10-4.7 22.9 2.6 33.6 4.6 6.8 17.7 19 28.4 26.7 21.5 15.2 32.7 25.5 36.5 33.2 2.8 5.8 2.4 13.2-.9 18-4.3 6.3-9.4 8.6-18.7 8.5-8.5-.2-12.3-1.2-15.7-4.4-3.3-3.1-2.9-4.7 2.4-10.9 5.7-6.7 7.3-10.4 7.3-17.1s-2.6-12.4-7.5-16.7c-5-4.4-9.3-6.1-15.2-6.1-8.5.1-16.7 5-20.4 12.2-7.3 14.2.9 30.8 19.5 39.8 35 16.9 82.2 1.8 86.1-27.6.9-6.5-1.5-16.2-5.5-22.5-4.5-7-13.7-15.2-33-29.6-25.4-18.9-31-25.6-31-37 0-7.4 2.5-11.7 8.3-14.3 4.8-2.2 15.5-2.7 20.6-.9l3.1 1.1v45.5l4.2 2.9c8.6 5.9 22.3 17.6 26.6 22.7 2.4 2.9 4.8 5.6 5.3 6.2 1.3 1.3 2.9-1.2 2.9-4.8 0-2.7 0-2.7 7-2.7 8.4 0 11.3 1.3 16.7 7.4 10.7 12.1 11.4 35.5 1.4 49.9-4.4 6.5-8.6 8.7-17.6 9.4l-7.5.6v-7.7c0-5.3-.4-7.8-1.3-8.2-.7-.2-3.6 1.8-6.4 4.5s-8 6.5-11.7 8.6c-3.6 2-6.6 4.1-6.6 4.6s14.1.9 34 .9c31.8 0 34.5-.1 40.2-2.1 10.1-3.4 19.4-11 23.8-19.5 4.6-9.1 4.3-22.4-.8-31.7-4.9-9-16.2-17.5-25.7-19.3l-3.8-.7 3.5-1.8c5.5-2.8 13.4-12.1 15.8-18.7 1.8-4.6 2.1-7.4 1.8-14.7-.3-7.8-.7-10-3.6-15.7-3.7-7.7-9-12.8-17.2-16.7l-5.5-2.6-38-.7c-20.9-.4-44.5-.9-52.5-1.2-8-.2-15.4-.3-16.5 0m81.4 5.8c4.3 2.3 8.6 7.8 11.2 14.3 2 4.9 2.4 7.6 2.4 17.8s-.4 12.9-2.4 17.8C131.1 89.5 124.7 95 117 95h-4V28h4c2.3 0 5.4.7 6.9 1.4"/></svg>